<svg version="1.1" id="Layer_1" xmlns="http://www.w3.org/2000/svg" xmlns:xlink="http://www.w3.org/1999/xlink" x="0px" y="0px"
	 width="100%" viewBox="0 0 512 512" enable-background="new 0 0 512 512" xml:space="preserve">
<path fill="#000000" opacity="1.000000" stroke="none" 
	d="
M502.000000,513.000000 
	C338.979095,513.000000 175.958206,513.000000 12.377962,512.654663 
	C8.212401,508.872894 4.606195,505.436462 0.999995,502.000000 
	C1.000000,492.645782 1.000000,483.291534 1.349933,473.373444 
	C6.000082,461.575012 15.607979,460.761475 26.000004,460.976990 
	C26.000004,455.710297 25.874420,450.754608 26.032038,445.807922 
	C26.225653,439.731659 28.255278,434.445801 33.047104,430.349915 
	C34.041023,429.500305 34.904877,427.875549 34.921368,426.596375 
	C35.353836,393.041504 35.619980,359.484467 36.034985,325.929321 
	C36.130814,318.180756 36.692966,310.438660 36.993298,302.691772 
	C37.677750,285.036530 38.312958,267.379333 39.009975,249.724594 
	C39.282986,242.809677 39.554596,235.891129 40.045063,228.989746 
	C40.332138,224.950333 41.194553,220.951157 41.463783,216.911606 
	C41.525181,215.990341 40.392654,214.378983 39.493504,214.098419 
	C30.223322,211.205872 25.882879,205.631973 26.042599,195.874786 
	C26.152939,189.134155 26.983772,182.397507 26.929842,175.663605 
	C26.817196,161.597992 26.335909,147.535248 25.994213,133.471619 
	C25.959372,132.037537 25.844070,130.605377 25.744143,128.768616 
	C15.634901,129.713120 5.911989,130.114365 1.000000,119.000000 
	C1.000000,115.969406 1.000000,112.938812 1.356563,109.351532 
	C2.547064,103.464561 6.588813,100.945938 10.883511,99.074585 
	C23.500444,93.576950 36.214489,88.299393 48.932518,83.037193 
	C69.189697,74.655571 89.511108,66.428749 109.749275,58.001774 
	C131.034180,49.138950 152.197937,39.983772 173.515396,31.200932 
	C198.286438,20.995207 223.166977,11.055283 248.000000,0.999998 
	C253.688034,1.000000 259.376068,1.000000 265.656769,1.376010 
	C267.652802,2.105000 269.115356,2.308085 270.450165,2.834859 
	C280.418091,6.768657 290.409454,10.649408 300.301483,14.767796 
	C323.352997,24.364944 346.326599,34.149323 369.381165,43.739094 
	C391.987396,53.142376 414.660339,62.385361 437.293671,71.723701 
	C457.116241,79.902336 476.933441,88.094231 496.734100,96.325783 
	C503.296997,99.054115 510.204987,101.406227 513.000000,109.000000 
	C513.000000,112.030594 513.000000,115.061188 512.649536,118.642136 
	C510.755951,124.472008 505.021271,128.979492 499.799042,128.997360 
	C495.887909,129.010742 491.976715,129.000000 487.003693,129.000000 
	C487.003693,145.107498 486.902618,160.500000 487.048767,175.890167 
	C487.115936,182.962784 487.980011,190.033417 487.920288,197.100204 
	C487.847168,205.753769 482.329742,212.655457 474.768280,214.100830 
	C473.789612,214.287903 472.297180,215.879578 472.359344,216.723648 
	C472.655121,220.739197 473.677979,224.702911 473.948151,228.718292 
	C475.062866,245.286285 476.086578,261.861664 476.966583,278.443695 
	C477.483215,288.177887 477.707153,297.928619 477.989655,307.674042 
	C478.363861,320.580688 478.880005,333.488129 478.955048,346.397491 
	C479.106079,372.373810 479.013336,398.351654 478.981445,424.328796 
	C478.977844,427.266296 478.974915,429.626282 482.012024,431.780701 
	C486.271851,434.802490 487.899292,439.776062 487.981842,445.033630 
	C488.064453,450.297516 488.000000,455.563690 488.000000,461.171936 
	C499.121185,460.061188 507.934937,462.772858 513.000000,473.000000 
	C513.000000,482.354218 513.000000,491.708466 512.654663,501.622040 
	C508.872864,505.787598 505.436432,509.393799 502.000000,513.000000 
M166.000000,262.610168 
	C166.333679,255.528549 166.662964,248.446716 167.008377,241.365662 
	C167.040070,240.716003 167.185654,240.072617 167.259811,239.424194 
	C168.146255,231.673691 169.087906,223.928192 169.805298,216.162018 
	C169.864838,215.517349 168.522202,214.357452 167.627487,214.069534 
	C157.868515,210.929092 154.001801,205.730560 154.000137,195.490463 
	C153.999359,190.726303 154.000000,185.962128 154.000000,181.285248 
	C139.685684,181.285248 125.951859,181.285248 112.339890,181.285248 
	C112.163879,181.714615 112.053734,181.858536 112.053085,182.002930 
	C112.029091,187.332733 112.009964,192.662537 112.001289,197.992386 
	C111.989395,205.296524 108.125053,211.282745 101.167809,213.216354 
	C96.738068,214.447510 96.691292,217.227371 97.023766,220.594177 
	C97.986420,230.342407 99.251305,240.067825 99.938873,249.834473 
	C100.852669,262.814514 101.434036,275.820892 101.969742,288.823730 
	C102.446548,300.396942 102.764320,311.978943 102.978973,323.560272 
	C103.384979,345.465393 103.731125,367.372070 103.974976,389.279541 
	C104.113495,401.724060 104.000000,414.171356 104.000000,426.804321 
	C123.803627,426.804321 143.200729,426.804321 162.998154,426.804321 
	C162.998154,425.990967 162.992203,425.371735 162.999023,424.752594 
	C163.331970,394.517639 163.611145,364.281891 164.029800,334.048126 
	C164.176331,323.465820 164.694534,312.889069 164.992538,302.308350 
	C165.356171,289.397583 165.666580,276.485291 166.000000,262.610168 
M358.560486,427.000000 
	C375.644287,427.000000 392.728058,427.000000 410.999939,427.000000 
	C410.999939,411.510559 410.884491,396.618408 411.025757,381.728699 
	C411.265228,356.490753 411.615326,331.253479 412.032898,306.017822 
	C412.150116,298.932739 412.672668,291.854584 412.997192,284.772705 
	C413.669098,270.110413 414.225220,255.441696 415.048309,240.787933 
	C415.423370,234.111038 416.352112,227.466385 416.965393,220.801208 
	C417.290222,217.270813 417.452789,214.236069 412.617188,213.003998 
	C406.130005,211.351151 402.019867,205.172577 402.003143,198.700394 
	C401.988190,192.918427 402.000000,187.136368 402.000000,181.209732 
	C387.838409,181.209732 374.105927,181.209732 360.000000,181.209732 
	C360.000000,186.366516 360.006256,191.322876 359.998627,196.279205 
	C359.984283,205.598602 355.527710,211.388489 346.592468,214.092499 
	C345.656036,214.375900 344.397980,215.966141 344.472260,216.850739 
	C345.167480,225.130112 346.332001,233.372086 346.948883,241.655548 
	C347.816437,253.305023 348.438080,264.975861 348.968506,276.646484 
	C349.449097,287.219177 349.775909,297.801727 349.977020,308.383606 
	C350.386963,329.954803 350.762939,351.527557 350.968719,373.101410 
	C351.126007,389.589813 350.994202,406.080933 351.010345,422.570831 
	C351.011749,423.999786 351.158203,425.428619 351.245178,427.000000 
	C353.609406,427.000000 355.593079,427.000000 358.560486,427.000000 
M305.500000,163.000000 
	C360.260010,163.000000 415.020020,163.000000 469.710449,163.000000 
	C469.710449,151.353516 469.710449,140.280853 469.710449,129.285797 
	C327.687622,129.285797 185.954559,129.285797 44.289555,129.285797 
	C44.289555,140.646500 44.289555,151.719162 44.289555,163.000000 
	C131.219284,163.000000 217.859650,163.000000 305.500000,163.000000 
M135.512390,66.999817 
	C100.796967,81.457344 66.081551,95.914871 30.454226,110.752167 
	C181.885376,110.752167 332.172272,110.752167 483.026733,110.752167 
	C482.007904,110.114716 481.540405,109.721924 481.002411,109.500145 
	C460.569885,101.076714 440.099487,92.744370 419.701416,84.238472 
	C398.263702,75.299049 376.936493,66.094208 355.484680,57.189171 
	C328.568909,46.015953 301.504608,35.197552 274.657440,23.863558 
	C266.274017,20.324350 258.005554,16.870871 248.984955,20.099577 
	C239.499069,23.494814 230.287628,27.660137 220.971878,31.526609 
	C206.179352,37.666214 191.391373,43.816872 176.617294,50.000683 
	C163.169617,55.629311 149.743042,61.308311 135.512390,66.999817 
M285.000000,275.508118 
	C285.667297,262.011078 286.225037,248.507278 287.060089,235.020615 
	C287.360474,230.169159 288.295624,225.354263 289.001190,220.531464 
	C289.563629,216.686691 288.596100,214.168488 284.369446,212.956192 
	C278.244720,211.199493 274.029205,205.111115 274.004974,198.926239 
	C273.981781,193.001328 274.000000,187.076263 274.000000,181.308990 
	C262.305756,181.308990 251.236435,181.308990 240.000000,181.308990 
	C240.000000,187.097855 240.002991,192.578766 239.999237,198.059677 
	C239.994339,205.191147 235.986267,211.397720 229.113968,213.242569 
	C224.846237,214.388229 224.676941,216.878830 225.008255,220.162766 
	C225.991592,229.909271 227.260040,239.635254 227.935669,249.402557 
	C228.856583,262.715637 229.424515,276.055725 229.972000,289.391296 
	C230.440308,300.798370 230.815338,312.213379 230.971283,323.628448 
	C231.388885,354.195587 231.670944,384.764648 231.994537,415.333038 
	C232.034561,419.114166 232.000000,422.896088 232.000000,426.778015 
	C248.854385,426.778015 265.252869,426.778015 283.000000,426.778015 
	C283.000000,407.694183 282.870239,388.821960 283.037842,369.952393 
	C283.193970,352.375061 283.637787,334.799927 284.009125,317.224976 
	C284.296021,303.645935 284.666626,290.068695 285.000000,275.508118 
M305.500000,495.000000 
	C368.593536,495.000000 431.687073,495.000000 494.710449,495.000000 
	C494.710449,489.352234 494.710449,484.279663 494.710449,479.285278 
	C336.020721,479.285278 177.620728,479.285278 19.289543,479.285278 
	C19.289543,484.647736 19.289543,489.720306 19.289543,495.000000 
	C114.552620,495.000000 209.526306,495.000000 305.500000,495.000000 
M382.500000,445.000000 
	C269.742249,445.000000 156.984528,445.000000 44.286224,445.000000 
	C44.286224,450.641235 44.286224,455.713715 44.286224,460.718018 
	C186.305984,460.718018 328.039337,460.718018 469.713806,460.718018 
	C469.713806,455.358795 469.713806,450.286316 469.713806,445.000000 
	C440.785431,445.000000 412.142700,445.000000 382.500000,445.000000 
M429.000000,330.560455 
	C429.000000,362.589294 429.000000,394.618134 429.000000,426.774536 
	C439.182861,426.774536 449.920715,426.774536 461.000000,426.774536 
	C461.000000,424.925110 461.015228,423.296143 460.997742,421.667511 
	C460.667480,390.917358 460.382721,360.166595 459.966125,329.417603 
	C459.858795,321.495972 459.346924,313.579407 458.998688,305.661499 
	C458.005249,283.072540 457.065857,260.480835 455.963440,237.897171 
	C455.592316,230.295135 454.795868,222.713852 454.207428,215.294632 
	C447.306976,215.294632 441.217865,215.294632 435.167023,215.294632 
	C434.094360,227.664246 432.847229,239.726074 432.053131,251.817657 
	C431.156342,265.473145 430.564484,279.151398 430.030609,292.827179 
	C429.552490,305.073120 429.333405,317.329193 429.000000,330.560455 
M304.002502,250.786118 
	C303.335388,264.624268 302.578705,278.458832 302.028656,292.301636 
	C301.561859,304.048737 301.134735,315.803741 301.044037,327.557983 
	C300.885895,348.056427 301.000275,368.557007 300.999420,389.056671 
	C300.999359,390.223236 300.986145,391.389832 300.986053,392.556396 
	C300.984985,403.919098 300.985382,415.281799 300.985382,426.772644 
	C311.185699,426.772644 321.924133,426.772644 333.000000,426.772644 
	C333.000000,424.920624 333.015320,423.291107 332.997742,421.661896 
	C332.667450,391.076447 332.383331,360.490387 331.966400,329.906097 
	C331.856110,321.817322 331.348389,313.733490 330.998322,305.648468 
	C330.005737,282.724701 329.071289,259.798004 327.958588,236.880035 
	C327.605682,229.611588 326.764130,222.366867 326.162354,215.301056 
	C319.290314,215.301056 313.201599,215.301056 306.832123,215.301056 
	C306.205475,226.249741 305.611877,236.915527 304.949524,247.577072 
	C304.901703,248.346375 304.352234,249.084518 304.002502,250.786118 
M79.000000,219.445496 
	C78.919487,218.019775 78.838974,216.594040 78.756218,215.128510 
	C72.426155,215.128510 66.464157,215.128510 60.161884,215.128510 
	C59.434330,220.477814 58.439438,225.723572 58.054234,231.013718 
	C56.907661,246.760010 55.877724,262.517242 55.043159,278.282959 
	C54.483429,288.856812 54.256512,299.450653 54.017456,310.038635 
	C53.620430,327.623016 53.201481,345.208679 53.036842,362.796051 
	C52.869915,380.627747 53.000000,398.462219 53.000000,416.295471 
	C53.000000,419.749146 53.000000,423.202789 53.000000,426.778992 
	C64.172592,426.778992 74.911003,426.778992 86.193825,426.778992 
	C84.048492,357.814148 86.131935,288.951569 79.000000,219.445496 
M182.000000,311.668823 
	C182.000000,350.021729 182.000000,388.374603 182.000000,426.735229 
	C192.262787,426.735229 203.001495,426.735229 214.457794,426.735229 
	C213.963226,415.731049 213.250763,405.019867 213.046326,394.299011 
	C212.567993,369.217163 212.389008,344.129700 211.973007,319.046448 
	C211.802933,308.791687 211.410156,298.538727 210.981628,288.290649 
	C210.388947,274.116730 209.740372,259.944244 208.975266,245.778732 
	C208.427673,235.640701 207.649658,225.515121 206.962509,215.204712 
	C200.542145,215.204712 194.448715,215.204712 187.068665,215.204712 
	C185.376678,247.084503 183.688339,278.895721 182.000000,311.668823 
M172.057465,196.257126 
	C172.295319,196.486115 172.532806,196.915085 172.771118,196.915543 
	C189.054337,196.947006 205.337601,196.944077 221.791199,196.944077 
	C221.791199,191.517044 221.791199,186.445663 221.791199,181.211288 
	C205.177902,181.211288 188.773773,181.211288 172.003983,181.211288 
	C172.003983,186.039566 172.003983,190.665314 172.057465,196.257126 
M426.576813,197.000000 
	C440.998871,197.000000 455.420898,197.000000 469.683716,197.000000 
	C469.683716,191.297485 469.683716,186.224442 469.683716,181.316711 
	C452.961182,181.316711 436.556488,181.316711 420.320862,181.316711 
	C420.320862,186.711838 420.320862,191.783157 420.320862,197.000000 
	C422.293976,197.000000 423.946930,197.000000 426.576813,197.000000 
M292.000000,185.605499 
	C292.000000,189.361847 292.000000,193.118195 292.000000,196.672058 
	C309.059326,196.672058 325.465424,196.672058 341.667786,196.672058 
	C341.667786,191.264252 341.667786,186.189102 341.667786,181.000092 
	C326.013916,181.000092 310.690979,181.089508 295.370819,180.924225 
	C292.327179,180.891388 291.599518,182.016602 292.000000,185.605499 
M93.266357,181.057327 
	C76.979210,181.057327 60.692062,181.057327 44.203766,181.057327 
	C44.203766,186.456284 44.203766,191.527740 44.203766,196.799774 
	C60.796646,196.799774 77.201080,196.799774 93.943153,196.799774 
	C93.943153,191.655380 93.943153,186.699997 93.266357,181.057327 
z"/>
<path fill="#FFFFFF" opacity="1.000000" stroke="none" 
	d="
M247.531342,0.999998 
	C223.166977,11.055283 198.286438,20.995207 173.515396,31.200932 
	C152.197937,39.983772 131.034180,49.138950 109.749275,58.001774 
	C89.511108,66.428749 69.189697,74.655571 48.932518,83.037193 
	C36.214489,88.299393 23.500444,93.576950 10.883511,99.074585 
	C6.588813,100.945938 2.547064,103.464561 1.356563,108.897415 
	C1.000000,73.044411 1.000000,37.088821 1.000000,1.000000 
	C83.020851,1.000000 165.041763,1.000000 247.531342,0.999998 
z"/>
<path fill="#FFFFFF" opacity="1.000000" stroke="none" 
	d="
M513.000000,108.531342 
	C510.204987,101.406227 503.296997,99.054115 496.734100,96.325783 
	C476.933441,88.094231 457.116241,79.902336 437.293671,71.723701 
	C414.660339,62.385361 391.987396,53.142376 369.381165,43.739094 
	C346.326599,34.149323 323.352997,24.364944 300.301483,14.767796 
	C290.409454,10.649408 280.418091,6.768657 270.450165,2.834859 
	C269.115356,2.308085 267.652802,2.105000 266.124695,1.376010 
	C348.231750,1.000000 430.463501,1.000000 513.000000,1.000000 
	C513.000000,36.686981 513.000000,72.374832 513.000000,108.531342 
z"/>
<path fill="#FFFFFF" opacity="1.000000" stroke="none" 
	d="
M1.000000,119.468658 
	C5.911989,130.114365 15.634901,129.713120 25.744143,128.768616 
	C25.844070,130.605377 25.959372,132.037537 25.994213,133.471619 
	C26.335909,147.535248 26.817196,161.597992 26.929842,175.663605 
	C26.983772,182.397507 26.152939,189.134155 26.042599,195.874786 
	C25.882879,205.631973 30.223322,211.205872 39.493504,214.098419 
	C40.392654,214.378983 41.525181,215.990341 41.463783,216.911606 
	C41.194553,220.951157 40.332138,224.950333 40.045063,228.989746 
	C39.554596,235.891129 39.282986,242.809677 39.009975,249.724594 
	C38.312958,267.379333 37.677750,285.036530 36.993298,302.691772 
	C36.692966,310.438660 36.130814,318.180756 36.034985,325.929321 
	C35.619980,359.484467 35.353836,393.041504 34.921368,426.596375 
	C34.904877,427.875549 34.041023,429.500305 33.047104,430.349915 
	C28.255278,434.445801 26.225653,439.731659 26.032038,445.807922 
	C25.874420,450.754608 26.000004,455.710297 26.000004,460.976990 
	C15.607979,460.761475 6.000082,461.575012 1.349933,472.904785 
	C1.000000,355.312439 1.000000,237.624878 1.000000,119.468658 
z"/>
<path fill="#FFFFFF" opacity="1.000000" stroke="none" 
	d="
M513.000000,472.531342 
	C507.934937,462.772858 499.121185,460.061188 488.000000,461.171936 
	C488.000000,455.563690 488.064453,450.297516 487.981842,445.033630 
	C487.899292,439.776062 486.271851,434.802490 482.012024,431.780701 
	C478.974915,429.626282 478.977844,427.266296 478.981445,424.328796 
	C479.013336,398.351654 479.106079,372.373810 478.955048,346.397491 
	C478.880005,333.488129 478.363861,320.580688 477.989655,307.674042 
	C477.707153,297.928619 477.483215,288.177887 476.966583,278.443695 
	C476.086578,261.861664 475.062866,245.286285 473.948151,228.718292 
	C473.677979,224.702911 472.655121,220.739197 472.359344,216.723648 
	C472.297180,215.879578 473.789612,214.287903 474.768280,214.100830 
	C482.329742,212.655457 487.847168,205.753769 487.920288,197.100204 
	C487.980011,190.033417 487.115936,182.962784 487.048767,175.890167 
	C486.902618,160.500000 487.003693,145.107498 487.003693,129.000000 
	C491.976715,129.000000 495.887909,129.010742 499.799042,128.997360 
	C505.021271,128.979492 510.755951,124.472008 512.649536,119.096245 
	C513.000000,236.687561 513.000000,354.375122 513.000000,472.531342 
z"/>
<path fill="#FFFFFF" opacity="1.000000" stroke="none" 
	d="
M0.999995,502.482971 
	C4.606195,505.436462 8.212401,508.872894 11.909304,512.654663 
	C8.412791,513.000000 4.825583,513.000000 1.000000,513.000000 
	C1.000000,509.657440 1.000000,506.311676 0.999995,502.482971 
z"/>
<path fill="#FFFFFF" opacity="1.000000" stroke="none" 
	d="
M502.482971,513.000000 
	C505.436432,509.393799 508.872864,505.787598 512.654663,502.090698 
	C513.000000,505.587189 513.000000,509.174408 513.000000,513.000000 
	C509.657440,513.000000 506.311676,513.000000 502.482971,513.000000 
z"/>
<path fill="#FFFFFF" opacity="1.000000" stroke="none" 
	d="
M166.000000,263.091919 
	C165.666580,276.485291 165.356171,289.397583 164.992538,302.308350 
	C164.694534,312.889069 164.176331,323.465820 164.029800,334.048126 
	C163.611145,364.281891 163.331970,394.517639 162.999023,424.752594 
	C162.992203,425.371735 162.998154,425.990967 162.998154,426.804321 
	C143.200729,426.804321 123.803627,426.804321 104.000000,426.804321 
	C104.000000,414.171356 104.113495,401.724060 103.974976,389.279541 
	C103.731125,367.372070 103.384979,345.465393 102.978973,323.560272 
	C102.764320,311.978943 102.446548,300.396942 101.969742,288.823730 
	C101.434036,275.820892 100.852669,262.814514 99.938873,249.834473 
	C99.251305,240.067825 97.986420,230.342407 97.023766,220.594177 
	C96.691292,217.227371 96.738068,214.447510 101.167809,213.216354 
	C108.125053,211.282745 111.989395,205.296524 112.001289,197.992386 
	C112.009964,192.662537 112.029091,187.332733 112.053085,182.002930 
	C112.053734,181.858536 112.163879,181.714615 112.339890,181.285248 
	C125.951859,181.285248 139.685684,181.285248 154.000000,181.285248 
	C154.000000,185.962128 153.999359,190.726303 154.000137,195.490463 
	C154.001801,205.730560 157.868515,210.929092 167.627487,214.069534 
	C168.522202,214.357452 169.864838,215.517349 169.805298,216.162018 
	C169.087906,223.928192 168.146255,231.673691 167.259811,239.424194 
	C167.185654,240.072617 167.040070,240.716003 167.008377,241.365662 
	C166.662964,248.446716 166.333679,255.528549 166.000000,263.091919 
z"/>
<path fill="#FFFFFF" opacity="1.000000" stroke="none" 
	d="
M358.068634,427.000000 
	C355.593079,427.000000 353.609406,427.000000 351.245178,427.000000 
	C351.158203,425.428619 351.011749,423.999786 351.010345,422.570831 
	C350.994202,406.080933 351.126007,389.589813 350.968719,373.101410 
	C350.762939,351.527557 350.386963,329.954803 349.977020,308.383606 
	C349.775909,297.801727 349.449097,287.219177 348.968506,276.646484 
	C348.438080,264.975861 347.816437,253.305023 346.948883,241.655548 
	C346.332001,233.372086 345.167480,225.130112 344.472260,216.850739 
	C344.397980,215.966141 345.656036,214.375900 346.592468,214.092499 
	C355.527710,211.388489 359.984283,205.598602 359.998627,196.279205 
	C360.006256,191.322876 360.000000,186.366516 360.000000,181.209732 
	C374.105927,181.209732 387.838409,181.209732 402.000000,181.209732 
	C402.000000,187.136368 401.988190,192.918427 402.003143,198.700394 
	C402.019867,205.172577 406.130005,211.351151 412.617188,213.003998 
	C417.452789,214.236069 417.290222,217.270813 416.965393,220.801208 
	C416.352112,227.466385 415.423370,234.111038 415.048309,240.787933 
	C414.225220,255.441696 413.669098,270.110413 412.997192,284.772705 
	C412.672668,291.854584 412.150116,298.932739 412.032898,306.017822 
	C411.615326,331.253479 411.265228,356.490753 411.025757,381.728699 
	C410.884491,396.618408 410.999939,411.510559 410.999939,427.000000 
	C392.728058,427.000000 375.644287,427.000000 358.068634,427.000000 
z"/>
<path fill="#FFFFFF" opacity="1.000000" stroke="none" 
	d="
M305.000000,163.000000 
	C217.859650,163.000000 131.219284,163.000000 44.289555,163.000000 
	C44.289555,151.719162 44.289555,140.646500 44.289555,129.285797 
	C185.954559,129.285797 327.687622,129.285797 469.710449,129.285797 
	C469.710449,140.280853 469.710449,151.353516 469.710449,163.000000 
	C415.020020,163.000000 360.260010,163.000000 305.000000,163.000000 
z"/>
<path fill="#FFFFFF" opacity="1.000000" stroke="none" 
	d="
M135.909775,66.982468 
	C149.743042,61.308311 163.169617,55.629311 176.617294,50.000683 
	C191.391373,43.816872 206.179352,37.666214 220.971878,31.526609 
	C230.287628,27.660137 239.499069,23.494814 248.984955,20.099577 
	C258.005554,16.870871 266.274017,20.324350 274.657440,23.863558 
	C301.504608,35.197552 328.568909,46.015953 355.484680,57.189171 
	C376.936493,66.094208 398.263702,75.299049 419.701416,84.238472 
	C440.099487,92.744370 460.569885,101.076714 481.002411,109.500145 
	C481.540405,109.721924 482.007904,110.114716 483.026733,110.752167 
	C332.172272,110.752167 181.885376,110.752167 30.454226,110.752167 
	C66.081551,95.914871 100.796967,81.457344 135.909775,66.982468 
M160.550079,95.000000 
	C226.862961,95.000000 293.175842,95.000961 359.488708,94.997993 
	C364.290161,94.997780 368.374481,92.191566 368.900909,87.913696 
	C369.438049,83.548744 367.832672,79.931679 363.447968,78.104820 
	C351.328339,73.055237 339.186768,68.057953 327.081604,62.973969 
	C308.174103,55.033096 289.318207,46.968544 270.378937,39.104557 
	C264.048004,36.475830 257.720825,32.999401 250.478134,36.197708 
	C246.082153,38.138935 241.704987,40.127953 237.263428,41.959850 
	C221.721024,48.370213 206.111099,54.618664 190.609787,61.126247 
	C176.868988,66.894768 163.182861,72.802124 149.588348,78.906029 
	C144.496246,81.192383 143.755844,87.029739 146.940292,91.528946 
	C150.354050,96.352142 155.138229,94.708122 160.550079,95.000000 
z"/>
<path fill="#FFFFFF" opacity="1.000000" stroke="none" 
	d="
M285.000000,275.999390 
	C284.666626,290.068695 284.296021,303.645935 284.009125,317.224976 
	C283.637787,334.799927 283.193970,352.375061 283.037842,369.952393 
	C282.870239,388.821960 283.000000,407.694183 283.000000,426.778015 
	C265.252869,426.778015 248.854385,426.778015 232.000000,426.778015 
	C232.000000,422.896088 232.034561,419.114166 231.994537,415.333038 
	C231.670944,384.764648 231.388885,354.195587 230.971283,323.628448 
	C230.815338,312.213379 230.440308,300.798370 229.972000,289.391296 
	C229.424515,276.055725 228.856583,262.715637 227.935669,249.402557 
	C227.260040,239.635254 225.991592,229.909271 225.008255,220.162766 
	C224.676941,216.878830 224.846237,214.388229 229.113968,213.242569 
	C235.986267,211.397720 239.994339,205.191147 239.999237,198.059677 
	C240.002991,192.578766 240.000000,187.097855 240.000000,181.308990 
	C251.236435,181.308990 262.305756,181.308990 274.000000,181.308990 
	C274.000000,187.076263 273.981781,193.001328 274.004974,198.926239 
	C274.029205,205.111115 278.244720,211.199493 284.369446,212.956192 
	C288.596100,214.168488 289.563629,216.686691 289.001190,220.531464 
	C288.295624,225.354263 287.360474,230.169159 287.060089,235.020615 
	C286.225037,248.507278 285.667297,262.011078 285.000000,275.999390 
z"/>
<path fill="#FFFFFF" opacity="1.000000" stroke="none" 
	d="
M305.000000,495.000000 
	C209.526306,495.000000 114.552620,495.000000 19.289543,495.000000 
	C19.289543,489.720306 19.289543,484.647736 19.289543,479.285278 
	C177.620728,479.285278 336.020721,479.285278 494.710449,479.285278 
	C494.710449,484.279663 494.710449,489.352234 494.710449,495.000000 
	C431.687073,495.000000 368.593536,495.000000 305.000000,495.000000 
z"/>
<path fill="#FFFFFF" opacity="1.000000" stroke="none" 
	d="
M383.000000,445.000000 
	C412.142700,445.000000 440.785431,445.000000 469.713806,445.000000 
	C469.713806,450.286316 469.713806,455.358795 469.713806,460.718018 
	C328.039337,460.718018 186.305984,460.718018 44.286224,460.718018 
	C44.286224,455.713715 44.286224,450.641235 44.286224,445.000000 
	C156.984528,445.000000 269.742249,445.000000 383.000000,445.000000 
z"/>
<path fill="#FFFFFF" opacity="1.000000" stroke="none" 
	d="
M429.000000,330.070618 
	C429.333405,317.329193 429.552490,305.073120 430.030609,292.827179 
	C430.564484,279.151398 431.156342,265.473145 432.053131,251.817657 
	C432.847229,239.726074 434.094360,227.664246 435.167023,215.294632 
	C441.217865,215.294632 447.306976,215.294632 454.207428,215.294632 
	C454.795868,222.713852 455.592316,230.295135 455.963440,237.897171 
	C457.065857,260.480835 458.005249,283.072540 458.998688,305.661499 
	C459.346924,313.579407 459.858795,321.495972 459.966125,329.417603 
	C460.382721,360.166595 460.667480,390.917358 460.997742,421.667511 
	C461.015228,423.296143 461.000000,424.925110 461.000000,426.774536 
	C449.920715,426.774536 439.182861,426.774536 429.000000,426.774536 
	C429.000000,394.618134 429.000000,362.589294 429.000000,330.070618 
z"/>
<path fill="#FFFFFF" opacity="1.000000" stroke="none" 
	d="
M304.019257,250.311646 
	C304.352234,249.084518 304.901703,248.346375 304.949524,247.577072 
	C305.611877,236.915527 306.205475,226.249741 306.832123,215.301056 
	C313.201599,215.301056 319.290314,215.301056 326.162354,215.301056 
	C326.764130,222.366867 327.605682,229.611588 327.958588,236.880035 
	C329.071289,259.798004 330.005737,282.724701 330.998322,305.648468 
	C331.348389,313.733490 331.856110,321.817322 331.966400,329.906097 
	C332.383331,360.490387 332.667450,391.076447 332.997742,421.661896 
	C333.015320,423.291107 333.000000,424.920624 333.000000,426.772644 
	C321.924133,426.772644 311.185699,426.772644 300.985382,426.772644 
	C300.985382,415.281799 300.984985,403.919098 300.986053,392.556396 
	C300.986145,391.389832 300.999359,390.223236 300.999420,389.056671 
	C301.000275,368.557007 300.885895,348.056427 301.044037,327.557983 
	C301.134735,315.803741 301.561859,304.048737 302.028656,292.301636 
	C302.578705,278.458832 303.335388,264.624268 304.019257,250.311646 
z"/>
<path fill="#FFFFFF" opacity="1.000000" stroke="none" 
	d="
M79.000000,219.915817 
	C86.131935,288.951569 84.048492,357.814148 86.193825,426.778992 
	C74.911003,426.778992 64.172592,426.778992 53.000000,426.778992 
	C53.000000,423.202789 53.000000,419.749146 53.000000,416.295471 
	C53.000000,398.462219 52.869915,380.627747 53.036842,362.796051 
	C53.201481,345.208679 53.620430,327.623016 54.017456,310.038635 
	C54.256512,299.450653 54.483429,288.856812 55.043159,278.282959 
	C55.877724,262.517242 56.907661,246.760010 58.054234,231.013718 
	C58.439438,225.723572 59.434330,220.477814 60.161884,215.128510 
	C66.464157,215.128510 72.426155,215.128510 78.756218,215.128510 
	C78.838974,216.594040 78.919487,218.019775 79.000000,219.915817 
z"/>
<path fill="#FFFFFF" opacity="1.000000" stroke="none" 
	d="
M182.000000,311.187897 
	C183.688339,278.895721 185.376678,247.084503 187.068665,215.204712 
	C194.448715,215.204712 200.542145,215.204712 206.962509,215.204712 
	C207.649658,225.515121 208.427673,235.640701 208.975266,245.778732 
	C209.740372,259.944244 210.388947,274.116730 210.981628,288.290649 
	C211.410156,298.538727 211.802933,308.791687 211.973007,319.046448 
	C212.389008,344.129700 212.567993,369.217163 213.046326,394.299011 
	C213.250763,405.019867 213.963226,415.731049 214.457794,426.735229 
	C203.001495,426.735229 192.262787,426.735229 182.000000,426.735229 
	C182.000000,388.374603 182.000000,350.021729 182.000000,311.187897 
z"/>
<path fill="#FFFFFF" opacity="1.000000" stroke="none" 
	d="
M172.030731,195.774078 
	C172.003983,190.665314 172.003983,186.039566 172.003983,181.211288 
	C188.773773,181.211288 205.177902,181.211288 221.791199,181.211288 
	C221.791199,186.445663 221.791199,191.517044 221.791199,196.944077 
	C205.337601,196.944077 189.054337,196.947006 172.771118,196.915543 
	C172.532806,196.915085 172.295319,196.486115 172.030731,195.774078 
z"/>
<path fill="#FFFFFF" opacity="1.000000" stroke="none" 
	d="
M426.088318,197.000000 
	C423.946930,197.000000 422.293976,197.000000 420.320862,197.000000 
	C420.320862,191.783157 420.320862,186.711838 420.320862,181.316711 
	C436.556488,181.316711 452.961182,181.316711 469.683716,181.316711 
	C469.683716,186.224442 469.683716,191.297485 469.683716,197.000000 
	C455.420898,197.000000 440.998871,197.000000 426.088318,197.000000 
z"/>
<path fill="#FFFFFF" opacity="1.000000" stroke="none" 
	d="
M292.000000,185.123093 
	C291.599518,182.016602 292.327179,180.891388 295.370819,180.924225 
	C310.690979,181.089508 326.013916,181.000092 341.667786,181.000092 
	C341.667786,186.189102 341.667786,191.264252 341.667786,196.672058 
	C325.465424,196.672058 309.059326,196.672058 292.000000,196.672058 
	C292.000000,193.118195 292.000000,189.361847 292.000000,185.123093 
z"/>
<path fill="#FFFFFF" opacity="1.000000" stroke="none" 
	d="
M93.604752,181.400970 
	C93.943153,186.699997 93.943153,191.655380 93.943153,196.799774 
	C77.201080,196.799774 60.796646,196.799774 44.203766,196.799774 
	C44.203766,191.527740 44.203766,186.456284 44.203766,181.057327 
	C60.692062,181.057327 76.979210,181.057327 93.604752,181.400970 
z"/>
<path fill="#000000" opacity="1.000000" stroke="none" 
	d="
M160.061432,95.000000 
	C155.138229,94.708122 150.354050,96.352142 146.940292,91.528946 
	C143.755844,87.029739 144.496246,81.192383 149.588348,78.906029 
	C163.182861,72.802124 176.868988,66.894768 190.609787,61.126247 
	C206.111099,54.618664 221.721024,48.370213 237.263428,41.959850 
	C241.704987,40.127953 246.082153,38.138935 250.478134,36.197708 
	C257.720825,32.999401 264.048004,36.475830 270.378937,39.104557 
	C289.318207,46.968544 308.174103,55.033096 327.081604,62.973969 
	C339.186768,68.057953 351.328339,73.055237 363.447968,78.104820 
	C367.832672,79.931679 369.438049,83.548744 368.900909,87.913696 
	C368.374481,92.191566 364.290161,94.997780 359.488708,94.997993 
	C293.175842,95.000961 226.862961,95.000000 160.061432,95.000000 
M213.277863,71.966965 
	C209.621063,73.336899 205.964264,74.706825 202.307465,76.076759 
	C202.379959,76.281914 202.452454,76.487076 202.524933,76.692230 
	C238.840195,76.692230 275.155457,76.692230 311.470734,76.692230 
	C296.106750,69.713745 280.600433,63.387005 265.137085,56.956966 
	C261.154541,55.300938 257.446716,52.998249 252.822113,54.999264 
	C239.898666,60.591122 226.916580,66.047508 213.277863,71.966965 
z"/>
<path fill="#FFFFFF" opacity="1.000000" stroke="none" 
	d="
M213.617737,71.762161 
	C226.916580,66.047508 239.898666,60.591122 252.822113,54.999264 
	C257.446716,52.998249 261.154541,55.300938 265.137085,56.956966 
	C280.600433,63.387005 296.106750,69.713745 311.470734,76.692230 
	C275.155457,76.692230 238.840195,76.692230 202.524933,76.692230 
	C202.452454,76.487076 202.379959,76.281914 202.307465,76.076759 
	C205.964264,74.706825 209.621063,73.336899 213.617737,71.762161 
z"/>
</svg>